<?xml version="1.0" encoding="utf-8"?>
<!-- Generator: Adobe Illustrator 27.6.1, SVG Export Plug-In . SVG Version: 6.00 Build 0)  -->
<svg version="1.1" id="Layer_1" xmlns="http://www.w3.org/2000/svg" xmlns:xlink="http://www.w3.org/1999/xlink" x="0px" y="0px"
	 viewBox="0 0 918.9 243.2" style="enable-background:new 0 0 918.9 243.2;" xml:space="preserve">
<style type="text/css">
	.st0{fill:#416C7F;}
	.st1{fill:#FFFFFF;}
</style>
<g>
	<path class="st0" d="M109.2,106.6c-2.8,6.3-5,14-6.6,20.3c-0.8,1.1-4.2,1.1-4.5-0.3c1.7-13.2-3.1-19.4-16-19.4
		c-10.7,0-22.6,4.8-33.1,16.7c-7.4,8.6-14.7,23.7-14.7,39.6c0,21.2,10.5,29.9,24.4,29.9c13.2,0,21.7-7.9,30-19.6
		c1.4-0.8,3.4-0.6,4.2,0.7c-2,6.2-6.2,15-9.5,21c-2.9,0.3-6.6,1.3-10.9,2c-4.2,0.7-8.7,1.4-14,1.4c-24.1,0-41.4-12.5-41.2-36.8
		c0.1-18,9-33.8,20.2-43.8c10.2-9.1,26.1-16.6,46.1-16.6C95.3,101.8,105.3,105.3,109.2,106.6z"/>
	<path class="st0" d="M151.4,137.2c0.6-0.3,1.7-0.6,2.8-0.6c2.7,0,6.6,0.8,7.9,3.4c-3.9,9.1-12.9,32.3-18.1,46.8
		c-0.7,1.8-0.1,2.5,0.7,2.5c2.1,0,7.9-3.2,14-9.1c1.1,0,2.2,0.8,2.2,2.7c-6.2,7.9-17.1,15.7-26.1,15.7c-3.4,0-4.6-2.8-4.6-4.5
		c0-1.4,0.3-2.9,1.4-5.8l5-13.3h-0.4c-9.8,13.3-23.8,23.6-32,23.6c-4.5,0-7.6-3.9-7.6-8.4c0-5.5,5.6-19.6,16.4-31.8
		c6.3-7,12.8-11.4,17.5-13.9c4.2-2.2,7.6-3.1,10.9-3.1c1.1,0,2.2,0.6,3.2,1c0.7,0.4,2.1,1.5,2.9,2.7L151.4,137.2z M128.1,153.3
		c-7.9,8.6-15.2,24.4-15.4,33.7c0,1.5,0.6,2.8,1.7,2.8c2.2,0,8.3-4.9,14.3-11.2c7.2-7.3,13.5-19.9,15.4-26.4
		c-1.1-3.4-3.4-4.9-6.2-4.9C134.9,147.3,132.6,148.5,128.1,153.3z"/>
	<path class="st0" d="M192.1,154l-4.9,14.4h0.8c4.2-7.7,9-15.7,12.5-20.1c4.5-5.6,8.3-9,12.5-9c4.5,0,6.5,3.9,6.5,7.9
		c0,4.3-3.2,11.2-7.6,11.2c-1.7,0-2.2-1.5-2.8-4.1c-0.6-2.8-1.4-4.2-2.8-4.2c-1.7,0-4.9,3.1-9.5,10.8c-5.2,8.4-11.1,22-16.8,35.3
		c-0.7,1.7-2.5,2.2-4.8,2.2c-2.8,0-7.7-0.8-6.5-4.8c3.1-9.1,10.1-28.6,14-41.4c0.7-2.2,0.6-3.6-0.8-3.6c-3.1,0-7.6,3.9-10.9,7.9
		c-1.4,0-2.5-1.1-2.2-2.8c3.6-6.3,10.7-14.4,19.4-14.4C195.6,139.4,194.4,147.6,192.1,154z"/>
	<path class="st0" d="M215.2,183.3c0-10.5,6.6-26.2,19.9-36.3c7.7-5.8,14.3-7.6,19.6-7.6c6.7,0,11.2,5,11.2,9.7
		c0,12.6-19.1,19.5-34.6,23.7c-0.7,2-1.3,5.2-1.3,9.1c0,5.2,2.2,8,6.2,8c5,0,10.1-2.9,16.6-8.8c1.4,0,2.5,1.4,2.2,2.8
		c-7.6,10.5-17.4,14.7-26.7,14.7S215.2,191,215.2,183.3z M242.6,150.1c-5.2,5.5-8.6,12.9-10.1,18c7.2-2.5,11.5-4.9,16-9.5
		c3.5-3.5,5.2-8.3,5.2-10.5c0-1.8-0.8-3.5-2.7-3.5C249.1,144.5,246.1,146.2,242.6,150.1z"/>
	<path class="st0" d="M303.9,161.6c0.8,0.8,1.3,2.8,1.3,4.6c0,1.7-0.4,3.4-1.3,4.5l-33.4,3.1c-0.8-0.8-1.3-2.9-1.3-4.5
		c0-1.8,0.4-3.2,1.3-4.6L303.9,161.6z"/>
	<path class="st0" d="M312.2,192.5c6.3-0.8,7.9-2.4,12.1-16l16.3-52.2c3.8-12.2,3.9-14.6-2.9-16.1l-3.1-0.7
		c-1.1-0.8-0.8-3.1,0.8-3.8c4.8,0.3,9.7,0.4,18,0.4h27.4c8.8,0,16.3,0,19.4-0.4c-1,2.4-4.3,12.9-6.3,20.3c-0.6,1.1-3.9,1.4-4.5,0
		c0.6-6,0.6-10.1-2.5-11.9c-2.4-1.4-6.3-2.5-13.5-2.5h-8.8c-3.6,0-3.9,0.4-5.3,5l-8.8,28.5c-1,3.2-0.8,3.6,2.4,3.6h9.4
		c10.2,0,12.8-1,16.1-7.2l2.1-3.9c0.8-1.1,3.9-0.8,4.5,0.3c-1.4,3.2-3.4,8.8-5,14c-1.7,5.2-2.9,10.5-4.1,14.3
		c-0.8,1.1-3.6,1.1-4.5,0l0.4-4.3c0.6-5.5-1.8-6.9-11.2-6.9h-9.7c-3.2,0-3.8,0.3-4.9,4.1l-5.9,19.4c-3.8,12.2-4.2,15.1,2.9,16l5,0.6
		c0.8,1.1,0.6,3.2-0.8,4.1c-8-0.3-14.2-0.4-20.5-0.4c-6,0-11.6,0.1-18.8,0.4c-1.1-0.8-1.1-3.2,0.3-4.1L312.2,192.5z"/>
	<path class="st0" d="M411.5,154l-4.9,14.4h0.8c4.2-7.7,9-15.7,12.5-20.1c4.5-5.6,8.3-9,12.5-9c4.5,0,6.5,3.9,6.5,7.9
		c0,4.3-3.2,11.2-7.6,11.2c-1.7,0-2.2-1.5-2.8-4.1c-0.6-2.8-1.4-4.2-2.8-4.2c-1.7,0-4.9,3.1-9.5,10.8c-5.2,8.4-11.1,22-16.8,35.3
		c-0.7,1.7-2.5,2.2-4.8,2.2c-2.8,0-7.7-0.8-6.5-4.8c3.1-9.1,10.1-28.6,14-41.4c0.7-2.2,0.6-3.6-0.8-3.6c-3.1,0-7.6,3.9-10.9,7.9
		c-1.4,0-2.5-1.1-2.2-2.8c3.6-6.3,10.7-14.4,19.4-14.4C415,139.4,413.7,147.6,411.5,154z"/>
	<path class="st0" d="M434.6,183.3c0-10.5,6.6-26.2,19.9-36.3c7.7-5.8,14.3-7.6,19.6-7.6c6.7,0,11.2,5,11.2,9.7
		c0,12.6-19.1,19.5-34.6,23.7c-0.7,2-1.3,5.2-1.3,9.1c0,5.2,2.2,8,6.2,8c5,0,10.1-2.9,16.6-8.8c1.4,0,2.5,1.4,2.2,2.8
		c-7.6,10.5-17.4,14.7-26.7,14.7C438.6,198.6,434.6,191,434.6,183.3z M462,150.1c-5.2,5.5-8.6,12.9-10.1,18c7.2-2.5,11.5-4.9,16-9.5
		c3.5-3.5,5.2-8.3,5.2-10.5c0-1.8-0.8-3.5-2.7-3.5C468.4,144.5,465.5,146.2,462,150.1z"/>
	<path class="st0" d="M486.5,183.3c0-10.5,6.6-26.2,19.9-36.3c7.7-5.8,14.3-7.6,19.6-7.6c6.7,0,11.2,5,11.2,9.7
		c0,12.6-19.1,19.5-34.6,23.7c-0.7,2-1.3,5.2-1.3,9.1c0,5.2,2.2,8,6.2,8c5,0,10.1-2.9,16.6-8.8c1.4,0,2.5,1.4,2.2,2.8
		c-7.6,10.5-17.4,14.7-26.7,14.7C490.5,198.6,486.5,191,486.5,183.3z M513.9,150.1c-5.2,5.5-8.6,12.9-10.1,18
		c7.2-2.5,11.5-4.9,16-9.5c3.5-3.5,5.2-8.3,5.2-10.5c0-1.8-0.8-3.5-2.7-3.5C520.3,144.5,517.4,146.2,513.9,150.1z"/>
	<path class="st0" d="M574.8,188.1c-1.3-6.9-0.4-13.6,0.6-18.9c0.8-0.8,3.4-0.8,4.3,0.3c0.8,5,2.2,10.1,5,14.6
		c3.5,5.8,9.5,9.4,17.3,9.4c8.8,0,18.5-5.9,18.5-18.1c0-9-6.9-16-14.7-21.7c-5.9-4.3-13.9-12.6-13.9-23.6c0-17,13.9-28.5,32.1-28.2
		c9.5,0.1,19.1,3.2,23.6,6.9c-1.8,4.2-3.9,10.9-5.3,17.4c-1.1,1.1-3.6,0.8-4.5-0.6c1.1-9.1-2.1-18.2-15.6-18.2
		c-10.9,0-17.1,7.9-17.1,16.1c0,9.3,9,15.8,13.6,19.2c9.1,6.5,16,14.4,16,26.9c0,16.8-13,29.3-34.8,29.3
		C587.8,198.9,577.4,194.1,574.8,188.1z"/>
	<path class="st0" d="M674.6,142c1.4-0.3,2.8-0.3,4.5-0.3c12.3,0,21.6,5.9,21.6,18.1c0,10.2-6.2,20.8-14.6,28.6
		c-7.9,7.4-18.2,10.2-24.7,10.2c-1.4,0-3.1-0.6-4.8-1.1c-1.1,0.3-1.8,1.1-2.2,2.5l-6,17.8c-2.7,7.7-2.8,10.2,2.2,10.7l5.9,0.6
		c1.1,0.8,0.8,3.2-0.8,3.8c-11.5,0-23.3,0.4-34.8,1.4c-1.4-0.8-1.7-3.1-0.6-4.1l3.9-0.6c6.7-1,7.7-3.9,10.4-11.5l24.3-68.5
		c-4.5,0.8-9.3,3.1-14,5.6c-1.7-0.3-2.5-2.2-1.7-3.4c4.5-3.4,11.8-7.2,18-8.8l4.2-10.5c0.8-1.1,2.8-1.4,5.3-1.4c3.4,0,6.5,1.4,7,2.5
		L674.6,142z M659.5,185.9c-0.6,1.7-0.6,3.4,0.4,4.9c0.7,1.1,2.2,2.8,4.2,2.8c2.1,0,8-2.1,12.8-9.1c5.8-8.6,9-18.7,9-26.4
		c0-7.6-4.8-10.8-9.5-10.8c-1.4,0-2.2,0.1-3.1,0.3L659.5,185.9z"/>
	<path class="st0" d="M725.4,186.1c-0.6,1.4-0.7,2.7,0.4,2.7c2.2,0,10-5.3,14-9.7c1.5,0,2.7,1.4,2.4,2.8
		c-3.9,5.9-17.4,16.7-28.1,16.7c-2.4,0-4.5-3.1-4.5-4.3c0-1.5,0.3-3.1,1.3-5.5l15.6-36.9c0.6-1.4,0.6-2.2-0.3-2.2
		c-1.7,0-7.6,3.6-12.1,7.6c-1.4,0-2.4-1.7-2-2.8c7.6-8.8,19.5-15,25.8-15c2,0,4.2,2,4.6,3.9c0.3,1.1-0.3,3.1-1.5,6L725.4,186.1z
		 M732.1,120.4c0-4.5,3.2-9.7,9.1-9.7c4.1,0,6.5,2.2,6.5,6.6c0,5-3.8,9.7-9.1,9.7C734.4,126.9,732.1,123.9,732.1,120.4z"/>
	<path class="st0" d="M774.8,154l-4.9,14.4h0.8c4.2-7.7,9-15.7,12.5-20.1c4.5-5.6,8.3-9,12.5-9c4.5,0,6.5,3.9,6.5,7.9
		c0,4.3-3.2,11.2-7.6,11.2c-1.7,0-2.2-1.5-2.8-4.1c-0.6-2.8-1.4-4.2-2.8-4.2c-1.7,0-4.9,3.1-9.5,10.8c-5.2,8.4-11.1,22-16.8,35.3
		c-0.7,1.7-2.5,2.2-4.8,2.2c-2.8,0-7.7-0.8-6.5-4.8c3.1-9.1,10.1-28.6,14-41.4c0.7-2.2,0.6-3.6-0.8-3.6c-3.1,0-7.6,3.9-10.9,7.9
		c-1.4,0-2.5-1.1-2.2-2.8c3.6-6.3,10.7-14.4,19.4-14.4C778.3,139.4,777,147.6,774.8,154z"/>
	<path class="st0" d="M818.4,186.1c-0.6,1.4-0.7,2.7,0.4,2.7c2.2,0,10-5.3,14-9.7c1.5,0,2.7,1.4,2.4,2.8
		c-3.9,5.9-17.4,16.7-28.1,16.7c-2.4,0-4.5-3.1-4.5-4.3c0-1.5,0.3-3.1,1.3-5.5l15.6-36.9c0.6-1.4,0.6-2.2-0.3-2.2
		c-1.7,0-7.6,3.6-12.1,7.6c-1.4,0-2.4-1.7-2-2.8c7.6-8.8,19.5-15,25.8-15c2,0,4.2,2,4.6,3.9c0.3,1.1-0.3,3.1-1.5,6L818.4,186.1z
		 M825.1,120.4c0-4.5,3.2-9.7,9.1-9.7c4.1,0,6.5,2.2,6.5,6.6c0,5-3.8,9.7-9.1,9.7C827.4,126.9,825.1,123.9,825.1,120.4z"/>
	<path class="st0" d="M871.8,147.8l-12.8,36.9c-0.8,2.2-0.6,3.4,0.8,3.4c2.2,0,10.4-6.2,15.4-11.8c1.7,0.3,2.5,1.1,2.2,3.1
		c-6.2,9.3-19.9,19.2-28.9,19.2c-2.8,0-5-2.5-5-4.8c0-2,0.4-3.9,1.7-7.7l13-38.3h-10.7c-0.8-1.3,0-3.6,1.4-4.5l11.8-2.2l9-13.6
		c0.8-0.6,2-0.7,3.4-0.7c2,0,3.9,0.7,4.5,1.8l-3.9,13h14c1.7,1.7,0.6,5.3-1.1,6.2H871.8z"/>
</g>
<g>
	<path class="st1" d="M69.3,13c0-0.4,0.4-0.7,0.8-0.7h0.7c0.2,0,0.6,0.2,0.7,0.4l9.8,18.2h0.1l9.8-18.2c0.1-0.3,0.5-0.4,0.7-0.4h0.7
		c0.3,0,0.7,0.3,0.8,0.7L98,41.3c0.1,0.5-0.3,0.9-0.8,0.9h-5c-0.4,0-0.8-0.3-0.8-0.7l-1.9-13h-0.1l-7.1,13.6
		c-0.1,0.3-0.5,0.5-0.7,0.5h-0.8c-0.3,0-0.6-0.2-0.7-0.5l-7.1-13.6H73l-1.9,13c0,0.3-0.4,0.7-0.8,0.7h-5c-0.5,0-0.9-0.4-0.8-0.9
		L69.3,13z"/>
	<path class="st1" d="M116.3,12.3c8.4,0,15.2,6.8,15.2,15.2s-6.7,15.1-15.2,15.1c-8.4,0-15.1-6.7-15.1-15.1S107.9,12.3,116.3,12.3z
		 M116.3,35.9c4.6,0,8.4-3.8,8.4-8.4c0-4.6-3.8-8.5-8.4-8.5c-4.6,0-8.4,3.8-8.4,8.5C108,32.1,111.8,35.9,116.3,35.9z"/>
	<path class="st1" d="M136.2,13.6c0-0.4,0.4-0.8,0.8-0.8h5.2c0.5,0,0.8,0.4,0.8,0.8v17c0,2.9,2.2,5.3,5.2,5.3c3,0,5.3-2.4,5.3-5.3
		v-17c0-0.4,0.3-0.8,0.8-0.8h5.2c0.4,0,0.8,0.4,0.8,0.8v17.4c0,6.4-5.4,11.7-12,11.7c-6.6,0-12-5.3-12-11.7V13.6z"/>
	<path class="st1" d="M166.9,13.1c0-0.4,0.4-0.8,0.8-0.8h1.1l16.8,16.2h0V13.6c0-0.4,0.3-0.8,0.8-0.8h5.1c0.4,0,0.8,0.4,0.8,0.8
		v28.3c0,0.4-0.4,0.8-0.8,0.8h-0.7c-0.1,0-0.5-0.1-0.5-0.2l-16.6-16.7h0v15.7c0,0.4-0.3,0.8-0.8,0.8h-5c-0.4,0-0.8-0.4-0.8-0.8
		L166.9,13.1z"/>
	<path class="st1" d="M203.2,18.9h-6c-0.5,0-0.8-0.4-0.8-0.8v-4.6c0-0.4,0.3-0.8,0.8-0.8h18.7c0.5,0,0.8,0.4,0.8,0.8v4.6
		c0,0.4-0.3,0.8-0.8,0.8h-6v22.5c0,0.4-0.4,0.8-0.8,0.8h-5c-0.4,0-0.8-0.4-0.8-0.8V18.9z"/>
	<path class="st1" d="M215.6,41.1l13.2-28.3c0.1-0.3,0.4-0.5,0.7-0.5h0.4c0.3,0,0.6,0.2,0.7,0.5l13.2,28.3c0.3,0.5-0.1,1.1-0.7,1.1
		h-4.7c-0.8,0-1.1-0.3-1.5-1.1l-1.5-3.3H224l-1.5,3.4c-0.2,0.5-0.7,1-1.5,1h-4.6C215.7,42.2,215.4,41.7,215.6,41.1z M232.9,32.1
		l-3.2-6.9h0l-3.2,6.9H232.9z"/>
	<path class="st1" d="M247.3,13.6c0-0.4,0.4-0.8,0.8-0.8h5.1c0.4,0,0.8,0.4,0.8,0.8v27.9c0,0.4-0.4,0.8-0.8,0.8h-5.1
		c-0.4,0-0.8-0.4-0.8-0.8V13.6z"/>
	<path class="st1" d="M261.1,13.1c0-0.4,0.4-0.8,0.8-0.8h1.1l16.8,16.2h0V13.6c0-0.4,0.3-0.8,0.8-0.8h5c0.4,0,0.8,0.4,0.8,0.8v28.3
		c0,0.4-0.4,0.8-0.8,0.8H285c-0.1,0-0.5-0.1-0.5-0.2l-16.6-16.7h0v15.7c0,0.4-0.3,0.8-0.8,0.8h-5c-0.4,0-0.8-0.4-0.8-0.8L261.1,13.1
		z"/>
	<path class="st1" d="M303,13.6c0-0.4,0.3-0.8,0.8-0.8h5c0.4,0,0.8,0.4,0.8,0.8V36h10c0.5,0,0.8,0.4,0.8,0.8v4.6
		c0,0.4-0.3,0.8-0.8,0.8h-15.8c-0.5,0-0.8-0.4-0.8-0.8V13.6z"/>
	<path class="st1" d="M323.7,13.6c0-0.4,0.4-0.8,0.8-0.8h5.2c0.5,0,0.8,0.4,0.8,0.8v17c0,2.9,2.2,5.3,5.2,5.3c3,0,5.3-2.4,5.3-5.3
		v-17c0-0.4,0.3-0.8,0.8-0.8h5.2c0.4,0,0.8,0.4,0.8,0.8v17.4c0,6.4-5.4,11.7-12,11.7c-6.6,0-12-5.3-12-11.7V13.6z"/>
	<path class="st1" d="M360.6,27.1l-8.5-13.2c-0.3-0.5,0-1.2,0.7-1.2h6.1c0.3,0,0.5,0.2,0.7,0.4l4.8,7.8h0l4.9-7.8
		c0.1-0.2,0.4-0.4,0.7-0.4h6.1c0.7,0,1.1,0.6,0.7,1.2l-8.5,13.2l8.8,13.9c0.4,0.6,0,1.2-0.7,1.2h-5.8c-0.3,0-0.6-0.2-0.7-0.4
		l-5.5-8.5h-0.1l-5.4,8.5c-0.1,0.2-0.4,0.4-0.7,0.4h-5.8c-0.7,0-1.1-0.6-0.7-1.2L360.6,27.1z"/>
	<path class="st1" d="M381.4,13.6c0-0.4,0.4-0.8,0.8-0.8h5.2c0.5,0,0.8,0.4,0.8,0.8v17c0,2.9,2.2,5.3,5.2,5.3c3,0,5.3-2.4,5.3-5.3
		v-17c0-0.4,0.3-0.8,0.8-0.8h5.2c0.4,0,0.8,0.4,0.8,0.8v17.4c0,6.4-5.4,11.7-12,11.7c-6.6,0-12-5.3-12-11.7V13.6z"/>
	<path class="st1" d="M412.1,13.6c0-0.4,0.3-0.8,0.8-0.8h12.6c5.1,0,9.2,4.1,9.2,9.1c0,3.9-2.6,7-6.2,8.5l5.8,10.7
		c0.3,0.5,0,1.2-0.7,1.2h-5.6c-0.3,0-0.6-0.2-0.7-0.4l-5.6-11.2h-2.9v10.7c0,0.4-0.4,0.8-0.8,0.8h-5c-0.5,0-0.8-0.4-0.8-0.8V13.6z
		 M425,25.3c1.7,0,3.2-1.6,3.2-3.4c0-1.8-1.5-3.2-3.2-3.2h-6.2v6.6H425z"/>
	<path class="st1" d="M445.6,28L436.3,14c-0.3-0.5,0-1.2,0.7-1.2h5.5c0.3,0,0.5,0.2,0.7,0.4l5.9,8.6l5.9-8.6
		c0.1-0.2,0.3-0.4,0.7-0.4h5.5c0.7,0,1,0.7,0.7,1.2l-9.4,14v13.4c0,0.4-0.4,0.8-0.8,0.8h-5c-0.5,0-0.8-0.4-0.8-0.8V28z"/>
	<path class="st1" d="M477.2,13c0-0.4,0.4-0.7,0.8-0.7h0.7c0.2,0,0.6,0.2,0.7,0.4l9.8,18.2h0.1l9.8-18.2c0.1-0.3,0.5-0.4,0.7-0.4
		h0.7c0.3,0,0.7,0.3,0.8,0.7l4.8,28.3c0.1,0.5-0.3,0.9-0.8,0.9h-5c-0.4,0-0.8-0.3-0.8-0.7l-1.9-13h-0.1l-7.1,13.6
		c-0.1,0.3-0.5,0.5-0.7,0.5h-0.8c-0.3,0-0.6-0.2-0.7-0.5L481,28.5h-0.1l-1.9,13c0,0.3-0.4,0.7-0.8,0.7h-5c-0.5,0-0.9-0.4-0.8-0.9
		L477.2,13z"/>
	<path class="st1" d="M511.3,13.6c0-0.4,0.3-0.8,0.8-0.8h17.4c0.5,0,0.8,0.4,0.8,0.8v4.6c0,0.4-0.3,0.8-0.8,0.8h-11.7v5.2h9.6
		c0.4,0,0.8,0.4,0.8,0.8v4.6c0,0.5-0.4,0.8-0.8,0.8h-9.6V36h11.7c0.5,0,0.8,0.4,0.8,0.8v4.6c0,0.4-0.3,0.8-0.8,0.8h-17.4
		c-0.5,0-0.8-0.4-0.8-0.8V13.6z"/>
	<path class="st1" d="M535.9,13.6c0-0.4,0.3-0.8,0.8-0.8h17.4c0.5,0,0.8,0.4,0.8,0.8v4.6c0,0.4-0.3,0.8-0.8,0.8h-11.7v5.2h9.6
		c0.4,0,0.8,0.4,0.8,0.8v4.6c0,0.5-0.4,0.8-0.8,0.8h-9.6V36h11.7c0.5,0,0.8,0.4,0.8,0.8v4.6c0,0.4-0.3,0.8-0.8,0.8h-17.4
		c-0.5,0-0.8-0.4-0.8-0.8V13.6z"/>
	<path class="st1" d="M564.4,18.9h-6c-0.5,0-0.8-0.4-0.8-0.8v-4.6c0-0.4,0.3-0.8,0.8-0.8H577c0.5,0,0.8,0.4,0.8,0.8v4.6
		c0,0.4-0.3,0.8-0.8,0.8h-6v22.5c0,0.4-0.4,0.8-0.8,0.8h-5.1c-0.4,0-0.8-0.4-0.8-0.8V18.9z"/>
	<path class="st1" d="M580.4,38.2l2-3.5c0.3-0.5,1.1-0.5,1.4-0.3c0.2,0.1,3.2,2.3,6,2.3c1.7,0,2.9-1.1,2.9-2.5
		c0-1.8-1.5-3.1-4.3-4.3c-3.6-1.4-8.2-4.3-8.2-9.3c0-4.2,3.2-8.4,9.7-8.4c4.4,0,7.7,2.2,9,3.2c0.5,0.3,0.4,1.1,0.3,1.3l-2.1,3.2
		c-0.3,0.5-1.1,0.8-1.4,0.5c-0.4-0.2-3.5-2.5-6-2.5c-1.5,0-2.7,1-2.7,2.1c0,1.6,1.3,2.7,4.6,4.1c3.3,1.3,8.5,3.9,8.5,9.6
		c0,4.3-3.7,8.7-9.9,8.7c-5.5,0-8.5-2.3-9.5-3.2C580.2,39,580,38.8,580.4,38.2z"/>
</g>
</svg>
